<svg width="154" height="40" viewBox="0 0 154 40" fill="none" xmlns="http://www.w3.org/2000/svg">
<path d="M154 16.2395H151.661V14.7238H151.618C151.286 15.3734 150.802 15.8426 150.167 16.1313C149.531 16.4055 148.86 16.5427 148.152 16.5427C147.272 16.5427 146.499 16.3911 145.835 16.088C145.185 15.7704 144.644 15.3446 144.211 14.8105C143.777 14.2764 143.453 13.6484 143.236 12.9267C143.019 12.1905 142.911 11.4037 142.911 10.5665C142.911 9.55604 143.048 8.6827 143.323 7.94651C143.597 7.21031 143.958 6.60403 144.406 6.12767C144.868 5.65131 145.387 5.30486 145.965 5.08833C146.557 4.85737 147.156 4.74189 147.762 4.74189C148.109 4.74189 148.463 4.77798 148.824 4.85015C149.185 4.90789 149.531 5.00894 149.863 5.15329C150.195 5.29764 150.499 5.4853 150.773 5.71627C151.062 5.93279 151.3 6.19263 151.488 6.49577H151.531V0.779419H154V16.2395ZM145.38 10.7614C145.38 11.2377 145.438 11.7069 145.553 12.1688C145.683 12.6307 145.871 13.0421 146.116 13.403C146.376 13.7639 146.701 14.0526 147.091 14.2691C147.481 14.4857 147.943 14.5939 148.477 14.5939C149.026 14.5939 149.495 14.4784 149.885 14.2475C150.289 14.0165 150.614 13.7134 150.86 13.3381C151.119 12.9627 151.307 12.5441 151.423 12.0822C151.553 11.6058 151.618 11.1223 151.618 10.6315C151.618 9.39003 151.336 8.42287 150.773 7.72998C150.224 7.03709 149.473 6.69064 148.521 6.69064C147.943 6.69064 147.452 6.81334 147.048 7.05874C146.658 7.2897 146.333 7.60006 146.073 7.98981C145.828 8.36513 145.647 8.79819 145.532 9.28898C145.431 9.76535 145.38 10.2561 145.38 10.7614Z" fill="white"/>
<path d="M139.107 9.65714C139.078 9.26738 138.991 8.89207 138.847 8.53119C138.717 8.17031 138.529 7.85995 138.284 7.60012C138.053 7.32585 137.764 7.10932 137.417 6.95053C137.085 6.77731 136.71 6.6907 136.291 6.6907C135.858 6.6907 135.461 6.77009 135.1 6.92888C134.753 7.07323 134.45 7.28254 134.19 7.55681C133.945 7.81665 133.743 8.127 133.584 8.48788C133.44 8.84876 133.36 9.23851 133.346 9.65714H139.107ZM133.346 11.2811C133.346 11.7142 133.403 12.1328 133.519 12.537C133.649 12.9411 133.837 13.2948 134.082 13.598C134.328 13.9011 134.638 14.1465 135.013 14.3341C135.389 14.5074 135.836 14.594 136.356 14.594C137.078 14.594 137.656 14.4424 138.089 14.1393C138.536 13.8217 138.868 13.3526 139.085 12.7318H141.424C141.294 13.3381 141.07 13.8794 140.753 14.3558C140.435 14.8322 140.052 15.2364 139.605 15.5684C139.157 15.8859 138.652 16.1241 138.089 16.2829C137.54 16.4561 136.963 16.5427 136.356 16.5427C135.475 16.5427 134.696 16.3984 134.017 16.1097C133.338 15.821 132.761 15.4168 132.284 14.8971C131.822 14.3775 131.469 13.7567 131.223 13.035C130.992 12.3132 130.877 11.5193 130.877 10.6532C130.877 9.85923 130.999 9.1086 131.245 8.40127C131.505 7.67951 131.866 7.05158 132.328 6.51748C132.804 5.96894 133.375 5.53588 134.039 5.21831C134.703 4.90073 135.454 4.74194 136.291 4.74194C137.172 4.74194 137.959 4.9296 138.652 5.30492C139.359 5.6658 139.944 6.14938 140.406 6.75566C140.868 7.36194 141.2 8.06204 141.402 8.85598C141.619 9.63548 141.677 10.4439 141.576 11.2811H133.346Z" fill="white"/>
<path d="M122.05 12.6452C122.122 13.367 122.397 13.8722 122.873 14.1609C123.35 14.4496 123.92 14.594 124.584 14.594C124.815 14.594 125.075 14.5795 125.364 14.5507C125.667 14.5074 125.948 14.4352 126.208 14.3341C126.468 14.2331 126.678 14.0887 126.836 13.9011C127.01 13.699 127.089 13.4392 127.075 13.1216C127.06 12.804 126.945 12.5442 126.728 12.3421C126.512 12.14 126.23 11.9812 125.883 11.8657C125.551 11.7358 125.169 11.6275 124.736 11.5409C124.302 11.4543 123.862 11.3605 123.414 11.2594C122.952 11.1584 122.505 11.0357 122.072 10.8913C121.653 10.747 121.27 10.5521 120.924 10.3067C120.592 10.0613 120.325 9.75097 120.123 9.37565C119.92 8.9859 119.819 8.50954 119.819 7.94656C119.819 7.34028 119.964 6.83505 120.252 6.43086C120.556 6.01224 120.931 5.68023 121.379 5.43483C121.841 5.175 122.346 4.99456 122.895 4.89351C123.458 4.79247 123.992 4.74194 124.497 4.74194C125.075 4.74194 125.624 4.8069 126.143 4.93682C126.678 5.0523 127.154 5.24718 127.573 5.52144C128.006 5.79571 128.36 6.1566 128.634 6.60409C128.923 7.03714 129.103 7.56403 129.175 8.18474H126.598C126.483 7.5929 126.208 7.19593 125.775 6.99384C125.356 6.79174 124.873 6.6907 124.324 6.6907C124.151 6.6907 123.942 6.70513 123.696 6.734C123.465 6.76287 123.241 6.82062 123.025 6.90723C122.823 6.9794 122.649 7.09488 122.505 7.25367C122.36 7.39802 122.288 7.5929 122.288 7.8383C122.288 8.14144 122.389 8.38684 122.592 8.57449C122.808 8.76215 123.082 8.92094 123.414 9.05086C123.761 9.16634 124.151 9.26739 124.584 9.354C125.017 9.44061 125.465 9.53444 125.927 9.63548C126.374 9.73653 126.815 9.85923 127.248 10.0036C127.681 10.1479 128.064 10.3428 128.396 10.5882C128.742 10.8336 129.017 11.144 129.219 11.5193C129.435 11.8946 129.544 12.3565 129.544 12.9051C129.544 13.5691 129.392 14.1321 129.089 14.594C128.786 15.0559 128.389 15.4312 127.898 15.7199C127.421 16.0086 126.887 16.2179 126.295 16.3479C125.703 16.4778 125.118 16.5427 124.541 16.5427C123.833 16.5427 123.176 16.4633 122.57 16.3046C121.978 16.1458 121.458 15.9076 121.01 15.59C120.577 15.258 120.231 14.8538 119.971 14.3775C119.725 13.8867 119.595 13.3092 119.581 12.6452H122.05Z" fill="white"/>
<path d="M112.482 16.5427C111.587 16.5427 110.786 16.3984 110.078 16.1097C109.385 15.8065 108.793 15.3951 108.302 14.8755C107.826 14.3558 107.457 13.7351 107.198 13.0133C106.952 12.2916 106.829 11.4976 106.829 10.6315C106.829 9.77984 106.952 8.99312 107.198 8.27135C107.457 7.54959 107.826 6.92888 108.302 6.40921C108.793 5.88954 109.385 5.48536 110.078 5.19665C110.786 4.89351 111.587 4.74194 112.482 4.74194C113.377 4.74194 114.171 4.89351 114.864 5.19665C115.572 5.48536 116.164 5.88954 116.64 6.40921C117.131 6.92888 117.499 7.54959 117.745 8.27135C118.005 8.99312 118.135 9.77984 118.135 10.6315C118.135 11.4976 118.005 12.2916 117.745 13.0133C117.499 13.7351 117.131 14.3558 116.64 14.8755C116.164 15.3951 115.572 15.8065 114.864 16.1097C114.171 16.3984 113.377 16.5427 112.482 16.5427ZM112.482 14.594C113.031 14.594 113.507 14.4785 113.911 14.2475C114.316 14.0166 114.648 13.7134 114.908 13.3381C115.168 12.9628 115.355 12.5442 115.471 12.0823C115.601 11.6059 115.666 11.1223 115.666 10.6315C115.666 10.1552 115.601 9.67879 115.471 9.20243C115.355 8.72606 115.168 8.30744 114.908 7.94656C114.648 7.57125 114.316 7.26811 113.911 7.03714C113.507 6.80618 113.031 6.6907 112.482 6.6907C111.933 6.6907 111.457 6.80618 111.053 7.03714C110.648 7.26811 110.316 7.57125 110.056 7.94656C109.796 8.30744 109.602 8.72606 109.472 9.20243C109.356 9.67879 109.298 10.1552 109.298 10.6315C109.298 11.1223 109.356 11.6059 109.472 12.0823C109.602 12.5442 109.796 12.9628 110.056 13.3381C110.316 13.7134 110.648 14.0166 111.053 14.2475C111.457 14.4785 111.933 14.594 112.482 14.594Z" fill="white"/>
<path d="M94.1743 5.04508H96.5134V6.56078H96.5567C96.9032 5.9112 97.3869 5.44927 98.0078 5.175C98.6286 4.8863 99.3 4.74194 100.022 4.74194C100.903 4.74194 101.668 4.90073 102.318 5.21831C102.982 5.52145 103.531 5.94728 103.964 6.49582C104.397 7.02993 104.722 7.65786 104.938 8.37962C105.155 9.10138 105.263 9.87366 105.263 10.6965C105.263 11.4471 105.162 12.1761 104.96 12.8834C104.772 13.5907 104.476 14.2187 104.072 14.7672C103.682 15.3013 103.184 15.7344 102.578 16.0664C101.971 16.384 101.256 16.5427 100.433 16.5427C100.072 16.5427 99.7115 16.5066 99.3505 16.4345C98.9896 16.3767 98.6431 16.2757 98.311 16.1313C97.9789 15.987 97.6684 15.8065 97.3797 15.59C97.1053 15.359 96.8743 15.092 96.6866 14.7889H96.6433V20.3753H94.1743V5.04508ZM102.794 10.6532C102.794 10.1479 102.729 9.65714 102.599 9.18077C102.469 8.70441 102.274 8.28579 102.014 7.92491C101.755 7.54959 101.43 7.25367 101.04 7.03714C100.65 6.80618 100.202 6.6907 99.6971 6.6907C98.6575 6.6907 97.8706 7.05158 97.3364 7.77334C96.8166 8.4951 96.5567 9.45504 96.5567 10.6532C96.5567 11.2161 96.6217 11.743 96.7516 12.2338C96.896 12.7102 97.1053 13.1216 97.3797 13.468C97.654 13.8145 97.9789 14.0887 98.3543 14.2908C98.7441 14.4929 99.1917 14.594 99.6971 14.594C100.26 14.594 100.737 14.4785 101.126 14.2475C101.516 14.0166 101.834 13.7207 102.079 13.3598C102.339 12.9845 102.52 12.5658 102.621 12.1039C102.736 11.6275 102.794 11.144 102.794 10.6532Z" fill="white"/>
<path d="M75.2644 5.04508H77.6035V6.60409H77.6684C77.8561 6.32982 78.0583 6.0772 78.2748 5.84624C78.4914 5.61527 78.7297 5.4204 78.9896 5.26161C79.2639 5.10282 79.5743 4.98012 79.9208 4.89351C80.2674 4.79247 80.6644 4.74194 81.112 4.74194C81.7906 4.74194 82.4187 4.89351 82.9963 5.19665C83.5882 5.49979 84.007 5.96894 84.2524 6.60409C84.6711 6.02668 85.1548 5.57197 85.7035 5.23996C86.2522 4.90795 86.938 4.74194 87.761 4.74194C88.945 4.74194 89.8618 5.03065 90.5115 5.60806C91.1757 6.18547 91.5078 7.15262 91.5078 8.50954V16.2396H89.0388V9.70044C89.0388 9.25295 89.0244 8.84876 88.9955 8.48788C88.9666 8.11257 88.88 7.79499 88.7356 7.53516C88.6056 7.26089 88.4035 7.05158 88.1292 6.90723C87.8548 6.76287 87.4794 6.6907 87.003 6.6907C86.1655 6.6907 85.5591 6.95053 85.1837 7.4702C84.8083 7.98987 84.6206 8.72606 84.6206 9.67879V16.2396H82.1516V9.05086C82.1516 8.27135 82.0072 7.68673 81.7184 7.29698C81.4441 6.89279 80.9315 6.6907 80.1807 6.6907C79.8631 6.6907 79.5527 6.75566 79.2495 6.88557C78.9607 7.01549 78.7008 7.20315 78.4698 7.44855C78.2532 7.69395 78.0727 7.99709 77.9283 8.35797C77.7984 8.71885 77.7334 9.13025 77.7334 9.59218V16.2396H75.2644V5.04508Z" fill="white"/>
<path d="M67.559 16.5427C66.6638 16.5427 65.8624 16.3984 65.1549 16.1097C64.4619 15.8065 63.8699 15.3951 63.379 14.8755C62.9025 14.3558 62.5343 13.7351 62.2744 13.0133C62.029 12.2916 61.9062 11.4976 61.9062 10.6315C61.9062 9.77984 62.029 8.99312 62.2744 8.27135C62.5343 7.54959 62.9025 6.92888 63.379 6.40921C63.8699 5.88954 64.4619 5.48536 65.1549 5.19665C65.8624 4.89351 66.6638 4.74194 67.559 4.74194C68.4541 4.74194 69.2483 4.89351 69.9413 5.19665C70.6488 5.48536 71.2408 5.88954 71.7173 6.40921C72.2082 6.92888 72.5764 7.54959 72.8218 8.27135C73.0817 8.99312 73.2117 9.77984 73.2117 10.6315C73.2117 11.4976 73.0817 12.2916 72.8218 13.0133C72.5764 13.7351 72.2082 14.3558 71.7173 14.8755C71.2408 15.3951 70.6488 15.8065 69.9413 16.1097C69.2483 16.3984 68.4541 16.5427 67.559 16.5427ZM67.559 14.594C68.1076 14.594 68.5841 14.4785 68.9884 14.2475C69.3926 14.0166 69.7247 13.7134 69.9846 13.3381C70.2445 12.9628 70.4322 12.5442 70.5477 12.0823C70.6777 11.6059 70.7427 11.1223 70.7427 10.6315C70.7427 10.1552 70.6777 9.67879 70.5477 9.20243C70.4322 8.72606 70.2445 8.30744 69.9846 7.94656C69.7247 7.57125 69.3926 7.26811 68.9884 7.03714C68.5841 6.80618 68.1076 6.6907 67.559 6.6907C67.0103 6.6907 66.5338 6.80618 66.1295 7.03714C65.7253 7.26811 65.3932 7.57125 65.1333 7.94656C64.8734 8.30744 64.6785 8.72606 64.5485 9.20243C64.433 9.67879 64.3752 10.1552 64.3752 10.6315C64.3752 11.1223 64.433 11.6059 64.5485 12.0823C64.6785 12.5442 64.8734 12.9628 65.1333 13.3381C65.3932 13.7134 65.7253 14.0166 66.1295 14.2475C66.5338 14.4785 67.0103 14.594 67.559 14.594Z" fill="white"/>
<path d="M57.5817 5.69467C57.4662 5.24718 57.3073 4.83577 57.1052 4.46046C56.9031 4.08514 56.6432 3.76035 56.3255 3.48608C56.0079 3.21181 55.6325 3.0025 55.1993 2.85815C54.7806 2.69936 54.2897 2.61997 53.7266 2.61997C52.9036 2.61997 52.1889 2.78597 51.5824 3.11798C50.9905 3.44999 50.5068 3.89748 50.1314 4.46046C49.756 5.00899 49.4744 5.63693 49.2867 6.34425C49.1134 7.05158 49.0268 7.77334 49.0268 8.50954C49.0268 9.24573 49.1134 9.96749 49.2867 10.6748C49.4744 11.3821 49.756 12.0173 50.1314 12.5803C50.5068 13.1288 50.9905 13.5691 51.5824 13.9011C52.1889 14.2331 52.9036 14.3991 53.7266 14.3991C54.333 14.3991 54.8672 14.2981 55.3292 14.096C55.7913 13.8794 56.1883 13.5907 56.5204 13.2299C56.8525 12.8545 57.1124 12.4215 57.3001 11.9307C57.4878 11.4399 57.6105 10.913 57.6683 10.35H60.3106C60.2528 11.2739 60.0507 12.1183 59.7041 12.8834C59.372 13.6485 58.9172 14.3125 58.3397 14.8755C57.7621 15.424 57.0835 15.8498 56.3039 16.153C55.5242 16.4561 54.6651 16.6077 53.7266 16.6077C52.5715 16.6077 51.5319 16.3984 50.6078 15.9798C49.6982 15.5467 48.9257 14.9621 48.2904 14.2259C47.6551 13.4897 47.1642 12.6308 46.8177 11.6492C46.4856 10.6676 46.3196 9.62105 46.3196 8.50954C46.3196 7.41246 46.4856 6.37312 46.8177 5.39153C47.1642 4.40993 47.6551 3.55104 48.2904 2.81484C48.9257 2.07864 49.6982 1.49402 50.6078 1.06096C51.5319 0.627905 52.5715 0.411377 53.7266 0.411377C54.5929 0.411377 55.4087 0.534076 56.1739 0.779474C56.9391 1.01044 57.6105 1.35688 58.1881 1.81881C58.7801 2.2663 59.2565 2.81484 59.6175 3.46443C59.9785 4.11401 60.2023 4.85742 60.2889 5.69467H57.5817Z" fill="white"/>
<path d="M125.545 36.1025C125.618 36.8243 125.892 37.3295 126.368 37.6182C126.845 37.9069 127.415 38.0513 128.079 38.0513C128.31 38.0513 128.57 38.0368 128.859 38.008C129.162 37.9646 129.444 37.8925 129.704 37.7914C129.964 37.6904 130.173 37.546 130.332 37.3584C130.505 37.1563 130.584 36.8964 130.57 36.5789C130.556 36.2613 130.44 36.0015 130.224 35.7994C130.007 35.5973 129.725 35.4385 129.379 35.323C129.047 35.1931 128.664 35.0848 128.231 34.9982C127.798 34.9116 127.357 34.8178 126.91 34.7167C126.448 34.6157 126 34.493 125.567 34.3486C125.148 34.2043 124.766 34.0094 124.419 33.764C124.087 33.5186 123.82 33.2082 123.618 32.8329C123.416 32.4432 123.315 31.9668 123.315 31.4038C123.315 30.7976 123.459 30.2923 123.748 29.8881C124.051 29.4695 124.426 29.1375 124.874 28.8921C125.336 28.6323 125.841 28.4518 126.39 28.3508C126.953 28.2497 127.487 28.1992 127.993 28.1992C128.57 28.1992 129.119 28.2642 129.639 28.3941C130.173 28.5096 130.649 28.7045 131.068 28.9787C131.501 29.253 131.855 29.6139 132.129 30.0614C132.418 30.4944 132.599 31.0213 132.671 31.642H130.094C129.978 31.0502 129.704 30.6532 129.271 30.4511C128.852 30.249 128.368 30.148 127.819 30.148C127.646 30.148 127.437 30.1624 127.191 30.1913C126.96 30.2201 126.737 30.2779 126.52 30.3645C126.318 30.4367 126.145 30.5522 126 30.7109C125.856 30.8553 125.784 31.0502 125.784 31.2956C125.784 31.5987 125.885 31.8441 126.087 32.0318C126.303 32.2194 126.578 32.3782 126.91 32.5081C127.256 32.6236 127.646 32.7247 128.079 32.8113C128.513 32.8979 128.96 32.9917 129.422 33.0928C129.87 33.1938 130.31 33.3165 130.743 33.4609C131.176 33.6052 131.559 33.8001 131.891 34.0455C132.238 34.2909 132.512 34.6012 132.714 34.9766C132.931 35.3519 133.039 35.8138 133.039 36.3623C133.039 37.0264 132.887 37.5893 132.584 38.0513C132.281 38.5132 131.884 38.8885 131.393 39.1772C130.917 39.4659 130.382 39.6752 129.79 39.8051C129.198 39.9351 128.614 40 128.036 40C127.329 40 126.672 39.9206 126.065 39.7618C125.473 39.603 124.953 39.3649 124.506 39.0473C124.073 38.7153 123.726 38.3111 123.466 37.8347C123.221 37.3439 123.091 36.7665 123.076 36.1025H125.545Z" fill="white"/>
<path d="M119.337 33.1144C119.308 32.7247 119.221 32.3493 119.077 31.9885C118.947 31.6276 118.759 31.3172 118.514 31.0574C118.283 30.7831 117.994 30.5666 117.648 30.4078C117.316 30.2346 116.94 30.148 116.521 30.148C116.088 30.148 115.691 30.2274 115.33 30.3862C114.984 30.5305 114.68 30.7398 114.421 31.0141C114.175 31.2739 113.973 31.5843 113.814 31.9452C113.67 32.306 113.59 32.6958 113.576 33.1144H119.337ZM113.576 34.7384C113.576 35.1714 113.634 35.5901 113.749 35.9942C113.879 36.3984 114.067 36.7521 114.312 37.0552C114.558 37.3584 114.868 37.6038 115.244 37.7914C115.619 37.9646 116.067 38.0513 116.586 38.0513C117.308 38.0513 117.886 37.8997 118.319 37.5965C118.767 37.279 119.099 36.8098 119.315 36.1891H121.654C121.524 36.7954 121.301 37.3367 120.983 37.8131C120.665 38.2894 120.283 38.6936 119.835 39.0256C119.387 39.3432 118.882 39.5814 118.319 39.7402C117.77 39.9134 117.193 40 116.586 40C115.706 40 114.926 39.8557 114.247 39.567C113.569 39.2783 112.991 38.8741 112.515 38.3544C112.053 37.8347 111.699 37.214 111.453 36.4923C111.222 35.7705 111.107 34.9766 111.107 34.1104C111.107 33.3165 111.23 32.5659 111.475 31.8585C111.735 31.1368 112.096 30.5089 112.558 29.9748C113.034 29.4262 113.605 28.9932 114.269 28.6756C114.933 28.358 115.684 28.1992 116.521 28.1992C117.402 28.1992 118.189 28.3869 118.882 28.7622C119.59 29.1231 120.174 29.6067 120.636 30.2129C121.098 30.8192 121.431 31.5193 121.633 32.3133C121.849 33.0928 121.907 33.9011 121.806 34.7384H113.576Z" fill="white"/>
<path d="M104.415 28.5024H106.733V30.6676H106.776C106.848 30.3645 106.985 30.0686 107.187 29.7799C107.404 29.4912 107.657 29.2313 107.946 29.0004C108.249 28.755 108.581 28.5601 108.942 28.4157C109.303 28.2714 109.671 28.1992 110.046 28.1992C110.335 28.1992 110.53 28.2064 110.631 28.2209C110.747 28.2353 110.862 28.2497 110.978 28.2642V30.646C110.804 30.6171 110.624 30.5955 110.436 30.581C110.263 30.5522 110.09 30.5377 109.916 30.5377C109.498 30.5377 109.101 30.6243 108.725 30.7976C108.364 30.9563 108.047 31.2017 107.772 31.5338C107.498 31.8513 107.281 32.2483 107.123 32.7247C106.964 33.201 106.884 33.7496 106.884 34.3703V39.6969H104.415V28.5024Z" fill="white"/>
<path d="M101.811 39.6968H99.3857V38.1378H99.3424C99.0392 38.7008 98.5844 39.1555 97.978 39.502C97.386 39.834 96.7796 40 96.1587 40C94.686 40 93.6175 39.6391 92.9534 38.9173C92.3036 38.1811 91.9788 37.0768 91.9788 35.6044V28.5023H94.4478V35.3663C94.4478 36.3479 94.6355 37.0408 95.0109 37.4449C95.3863 37.8491 95.9133 38.0512 96.5919 38.0512C97.1117 38.0512 97.5448 37.9718 97.8914 37.813C98.2379 37.6543 98.5194 37.4449 98.736 37.1851C98.9526 36.9108 99.1042 36.586 99.1908 36.2107C99.2919 35.8354 99.3424 35.4312 99.3424 34.9982V28.5023H101.811V39.6968Z" fill="white"/>
<path d="M83.6404 28.5023H85.503V25.1461H87.972V28.5023H90.2027V30.3428H87.972V36.319C87.972 36.5788 87.9792 36.8026 87.9936 36.9902C88.0225 37.1779 88.073 37.3367 88.1452 37.4666C88.2318 37.5965 88.3546 37.6975 88.5134 37.7697C88.6722 37.8275 88.8888 37.8563 89.1631 37.8563C89.3364 37.8563 89.5097 37.8563 89.6829 37.8563C89.8562 37.8419 90.0294 37.813 90.2027 37.7697V39.6752C89.9284 39.704 89.6613 39.7329 89.4014 39.7618C89.1415 39.7907 88.8744 39.8051 88.6 39.8051C87.9503 39.8051 87.4233 39.7473 87.019 39.6319C86.6292 39.5019 86.3187 39.3215 86.0877 39.0905C85.8711 38.8451 85.7195 38.542 85.6329 38.1811C85.5607 37.8202 85.5174 37.4088 85.503 36.9469V30.3428H83.6404V28.5023Z" fill="white"/>
<path d="M72.3303 28.5024H74.6694V30.148L74.7127 30.1913C75.0881 29.5706 75.579 29.087 76.1854 28.7405C76.7918 28.3797 77.4632 28.1992 78.1996 28.1992C79.4269 28.1992 80.3943 28.5168 81.1018 29.1519C81.8092 29.7871 82.163 30.7398 82.163 32.0101V39.6969H79.694V32.6597C79.6651 31.7792 79.4774 31.144 79.1309 30.7543C78.7844 30.3501 78.2429 30.148 77.5066 30.148C77.0878 30.148 76.7124 30.2274 76.3803 30.3862C76.0483 30.5305 75.7667 30.7398 75.5357 31.0141C75.3047 31.2739 75.1242 31.5843 74.9942 31.9452C74.8643 32.306 74.7993 32.6886 74.7993 33.0928V39.6969H72.3303V28.5024Z" fill="white"/>
<path d="M67.9841 33.1144C67.9553 32.7247 67.8686 32.3493 67.7242 31.9885C67.5943 31.6276 67.4066 31.3172 67.1611 31.0574C66.9301 30.7831 66.6413 30.5666 66.2948 30.4078C65.9627 30.2346 65.5873 30.148 65.1686 30.148C64.7355 30.148 64.3384 30.2274 63.9774 30.3862C63.6309 30.5305 63.3277 30.7398 63.0678 31.0141C62.8223 31.2739 62.6202 31.5843 62.4614 31.9452C62.317 32.306 62.2376 32.6958 62.2231 33.1144H67.9841ZM62.2231 34.7384C62.2231 35.1714 62.2809 35.5901 62.3964 35.9942C62.5264 36.3984 62.7141 36.7521 62.9595 37.0552C63.205 37.3584 63.5154 37.6038 63.8908 37.7914C64.2662 37.9646 64.7138 38.0513 65.2336 38.0513C65.9555 38.0513 66.5331 37.8997 66.9662 37.5965C67.4138 37.279 67.7459 36.8098 67.9625 36.1891H70.3015C70.1716 36.7954 69.9478 37.3367 69.6301 37.8131C69.3125 38.2894 68.9299 38.6936 68.4823 39.0256C68.0347 39.3432 67.5293 39.5814 66.9662 39.7402C66.4176 39.9134 65.84 40 65.2336 40C64.3528 40 63.5732 39.8557 62.8945 39.567C62.2159 39.2783 61.6384 38.8741 61.1619 38.3544C60.6999 37.8347 60.3461 37.214 60.1007 36.4923C59.8697 35.7705 59.7542 34.9766 59.7542 34.1104C59.7542 33.3165 59.8769 32.5659 60.1223 31.8585C60.3822 31.1368 60.7432 30.5089 61.2052 29.9748C61.6817 29.4262 62.252 28.9932 62.9162 28.6756C63.5804 28.358 64.3312 28.1992 65.1686 28.1992C66.0494 28.1992 66.8363 28.3869 67.5293 28.7622C68.2368 29.1231 68.8216 29.6067 69.2836 30.2129C69.7456 30.8192 70.0777 31.5193 70.2799 32.3133C70.4964 33.0928 70.5542 33.9011 70.4531 34.7384H62.2231Z" fill="white"/>
<path d="M46.8323 24.2367H49.6478L53.5246 36.4705H53.5679L57.5313 24.2367H60.2818L54.9973 39.6968H51.9868L46.8323 24.2367Z" fill="white"/>
<g clip-path="url(#clip0_72_17465)">
<path d="M22.4841 26.2295C21.962 26.5343 21.3983 26.7723 20.8051 26.9292V32.8027C20.2379 32.8857 19.6586 32.9271 19.0706 32.9271C18.4826 32.9271 17.9033 32.8857 17.3361 32.8027V26.9292C16.7429 26.7723 16.181 26.5343 15.6589 26.2295L11.654 30.3934C10.7173 29.6793 9.8796 28.83 9.16846 27.876L13.1474 23.7391C12.8109 23.1837 12.5455 22.5778 12.3651 21.934H6.68642C6.58408 21.2668 6.53205 20.5851 6.53205 19.889C6.53205 19.3606 6.56327 18.8395 6.62224 18.3273H12.2454C12.934 15.0687 15.7335 12.6234 19.0706 12.6234C20.4304 12.6234 21.7001 13.0291 22.7737 13.7306L31.434 4.72655C28.0968 1.77809 23.7797 0 19.0706 0C9.0297 0 0.768374 8.08797 0 18.3273H5.57462C5.51911 18.8395 5.49136 19.3606 5.49136 19.889C5.49136 20.5833 5.53993 21.2668 5.63359 21.934H0.0416275C0.445761 26.0312 2.05189 29.7659 4.48536 32.745L8.4261 28.6478C9.14764 29.5928 9.98193 30.4403 10.9099 31.1671L6.96047 35.2733C9.84144 37.7312 13.4197 39.3308 17.3361 39.6969V33.8937C17.905 33.9695 18.4826 34.0091 19.0706 34.0091C19.6586 34.0091 20.2362 33.9695 20.8051 33.8937V39.6969C24.7233 39.3308 28.3015 37.7312 31.1825 35.2733L22.4841 26.2295Z" fill="white"/>
<path d="M11.6531 30.3934L10.9092 31.1671C9.98149 30.4403 9.1474 29.5928 8.42603 28.6478L9.16821 27.876C9.87918 28.8299 10.7167 29.6793 11.6531 30.3934Z" fill="white"/>
<path d="M6.68623 21.9339H5.63365C5.54001 21.2667 5.49146 20.5832 5.49146 19.889C5.49146 19.3606 5.5192 18.8394 5.57469 18.3273H6.62207C6.56311 18.8394 6.5319 19.3606 6.5319 19.889C6.5319 20.585 6.58392 21.2667 6.68623 21.9339Z" fill="white"/>
<path d="M20.8043 32.8027V33.8938C20.2356 33.9695 19.6581 34.0092 19.0703 34.0092C18.4824 34.0092 17.905 33.9695 17.3362 33.8938V32.8027C17.9032 32.8857 18.4824 32.9272 19.0703 32.9272C19.6581 32.9272 20.2373 32.8857 20.8043 32.8027Z" fill="white"/>
<path d="M20.8052 32.8027C20.238 32.8856 19.6587 32.9271 19.0707 32.9271C18.4827 32.9271 17.9034 32.8856 17.3362 32.8027C15.2306 32.4979 13.2914 31.6485 11.6541 30.3934C10.7174 29.6793 9.87969 28.8299 9.16855 27.8759C7.89891 26.179 7.023 24.1484 6.68651 21.9339C6.58418 21.2667 6.53214 20.585 6.53214 19.889C6.53214 19.3606 6.56336 18.8394 6.62234 18.3273C7.36643 11.8713 12.6653 6.85263 19.0707 6.85263C21.9638 6.85263 24.6297 7.87512 26.7527 9.5937L27.4951 8.82188C25.1778 6.91214 22.25 5.77063 19.0707 5.77063C12.0911 5.77063 6.32401 11.2744 5.57471 18.3273C5.51921 18.8394 5.49146 19.3606 5.49146 19.889C5.49146 20.5832 5.54002 21.2667 5.63368 21.9339C5.98578 24.446 6.97617 26.7452 8.42619 28.6478C9.14774 29.5927 9.98202 30.4403 10.91 31.167C12.7468 32.6079 14.9461 33.5763 17.3362 33.8937C17.9051 33.9694 18.4827 34.0091 19.0707 34.0091C19.6587 34.0091 20.2363 33.9694 20.8052 33.8937C23.1953 33.5763 25.3946 32.6079 27.2332 31.167L26.4891 30.3934C24.8517 31.6485 22.9108 32.4979 20.8052 32.8027Z" fill="white"/>
</g>
<defs>
<clipPath id="clip0_72_17465">
<rect width="31.434" height="39.6969" fill="white"/>
</clipPath>
</defs>
</svg>
