<?xml version="1.0" encoding="utf-8"?>
<!-- Generator: Adobe Illustrator 26.0.2, SVG Export Plug-In . SVG Version: 6.00 Build 0)  -->
<svg version="1.1" id="Layer_1" xmlns="http://www.w3.org/2000/svg" xmlns:xlink="http://www.w3.org/1999/xlink" x="0px" y="0px"
	 viewBox="0 0 864.28 110.64" style="enable-background:new 0 0 864.28 110.64;" xml:space="preserve">
<style type="text/css">
	.st0{fill:#FFFFFF;}
</style>
<g>
	<g>
		<path class="st0" d="M185.69,35.32c-0.37-0.74-0.12-1.28,0.62-1.28h5.28c0.43-0.06,0.89,0.03,1.26,0.27
			c0.37,0.23,0.66,0.6,0.8,1.01l13.77,28.21h0.12l13.78-28.21c0.13-0.42,0.41-0.79,0.79-1.02s0.83-0.33,1.26-0.26h5.28
			c0.74,0,1.03,0.55,0.62,1.28l-20.7,41.62c-0.24,0.55-0.49,0.73-0.93,0.73h-0.37c-0.43,0-0.68-0.18-0.92-0.73L185.69,35.32z"/>
		<path class="st0" d="M272.86,33.21c5.84,0.12,11.38,2.54,15.46,6.7c4.08,4.17,6.36,9.78,6.36,15.61c0,5.84-2.28,11.43-6.36,15.61
			c-4.08,4.17-9.64,6.58-15.46,6.7c-12.41,0-22.01-9.77-22.01-22.3S260.44,33.21,272.86,33.21z M272.86,71.37
			c8.97,0,15-7.43,15-15.85s-6.02-15.86-15-15.86s-14.93,7.37-14.93,15.86c0,8.5,6.02,15.88,14.93,15.88V71.37z"/>
		<path class="st0" d="M348.03,70.8c1.03,0,1.23,0.24,1.23,1.22v3.75c0,1.03-0.24,1.29-1.23,1.29h-25.2c-0.93,0-1.22-0.31-1.22-1.29
			V35.32c0-0.98,0.3-1.28,1.22-1.28h4.56c0.92,0,1.22,0.31,1.22,1.28V70.8C328.6,70.8,348.03,70.8,348.03,70.8z"/>
		<path class="st0" d="M398.31,34.04c1.03,0,1.28,0.31,1.28,1.28v3.94c0,1.03-0.31,1.29-1.28,1.29H385.9v35.21
			c0,1.03-0.24,1.29-1.23,1.29h-4.55c-0.93,0-1.23-0.31-1.23-1.29V40.55h-12.47c-0.92,0-1.22-0.31-1.22-1.29v-3.94
			c0-0.98,0.31-1.28,1.22-1.28H398.31z"/>
		<path class="st0" d="M431.5,75.77c0,1.03-0.31,1.29-1.22,1.29h-4.54c-0.93,0-1.22-0.31-1.22-1.29V35.32
			c0-0.98,0.29-1.28,1.22-1.28h16.04c7.19,0,15.12,3.56,15.12,13.52c0,7.87-4.98,11.74-10.64,12.97l10.27,14.94
			c0.68,1.03,0.24,1.61-0.92,1.61h-4.91c-0.44-0.01-0.87-0.13-1.25-0.35c-0.37-0.23-0.69-0.56-0.9-0.94l-10.2-14.75h-6.89
			L431.5,75.77z M441.09,54.56c6.64,0,8.73-3.08,8.73-7.13s-2.05-7-8.73-7h-9.59v14.13C431.5,54.56,441.09,54.56,441.09,54.56z"/>
		<path class="st0" d="M503.36,33.21c5.84,0.12,11.38,2.54,15.46,6.7c4.08,4.17,6.36,9.78,6.36,15.61c0,5.84-2.28,11.43-6.36,15.61
			c-4.08,4.17-9.64,6.58-15.46,6.7c-12.41,0-22.01-9.77-22.01-22.3C481.35,42.98,490.95,33.21,503.36,33.21z M503.36,71.37
			c8.97,0,14.99-7.43,14.99-15.85s-6.02-15.86-14.99-15.86c-8.98,0-14.92,7.4-14.92,15.89s6,15.85,14.92,15.85V71.37z"/>
		<path class="st0" d="M559.23,49.04h-0.12v26.73c0,1.03-0.3,1.29-1.22,1.29h-4.49c-1.03,0-1.28-0.31-1.28-1.29V34.03
			c0-0.43,0.17-0.62,0.67-0.62h0.31c0.2,0,0.4,0.05,0.59,0.14c0.18,0.1,0.33,0.24,0.44,0.41l27.41,28.09h0.12V35.33
			c0-0.98,0.24-1.28,1.22-1.28h4.49c1.03,0,1.29,0.31,1.29,1.28v41.68c0,0.48-0.19,0.67-0.68,0.67h-0.3c-0.2,0-0.4-0.05-0.59-0.14
			s-0.33-0.23-0.44-0.4L559.23,49.04z"/>
		<path class="st0" d="M665.38,34.04c12.41,0,21.7,8.97,21.7,21.52c0,12.54-9.25,21.52-21.7,21.52h-15.41
			c-0.93,0-1.22-0.31-1.22-1.29V35.32c0-0.98,0.29-1.28,1.22-1.28H665.38z M655.8,40.43v30.24h9.59c8.91,0,14.63-6.7,14.63-15.12
			c0-8.41-5.72-15.15-14.63-15.15L655.8,40.43z"/>
		<path class="st0" d="M752.24,75.77c0.37,0.74,0.12,1.29-0.62,1.29h-5.28c-0.43,0.05-0.88-0.05-1.25-0.28
			c-0.37-0.23-0.66-0.6-0.8-1.01l-3.94-8.11h-19.8l-3.93,8.11c-0.13,0.42-0.4,0.8-0.79,1.03c-0.37,0.24-0.83,0.33-1.27,0.26h-5.28
			c-0.74,0-1.03-0.56-0.62-1.29l20.65-41.61c0.24-0.56,0.49-0.74,0.92-0.74h0.37c0.43,0,0.68,0.18,0.93,0.74L752.24,75.77z
			 M730.49,46.76l-7.12,14.45h14.26l-7.07-14.45C730.56,46.76,730.49,46.76,730.49,46.76z"/>
		<path class="st0" d="M801.72,34.04c1.03,0,1.29,0.31,1.29,1.28v3.94c0,1.03-0.31,1.29-1.29,1.29h-12.41v35.21
			c0,1.03-0.24,1.29-1.22,1.29h-4.56c-0.91,0-1.22-0.31-1.22-1.29V40.55h-12.47c-0.93,0-1.23-0.31-1.23-1.29v-3.94
			c0-0.98,0.3-1.28,1.23-1.28H801.72z"/>
		<path class="st0" d="M862.89,75.77c0.37,0.74,0.12,1.29-0.62,1.29h-5.28c-0.43,0.05-0.88-0.05-1.25-0.29
			c-0.37-0.23-0.66-0.59-0.81-1.01l-3.92-8.11h-19.78l-3.94,8.11c-0.12,0.43-0.4,0.8-0.78,1.04c-0.38,0.24-0.83,0.33-1.27,0.25
			h-5.28c-0.74,0-1.03-0.56-0.62-1.29l20.65-41.61c0.24-0.56,0.49-0.74,0.92-0.74h0.37c0.43,0,0.68,0.18,0.92,0.74L862.89,75.77z
			 M841.13,46.76L834,61.21h14.26l-7.06-14.45C841.2,46.76,841.13,46.76,841.13,46.76z"/>
	</g>
	<g>
		<path class="st0" d="M63.56,1.34L63.56,1.34H32.39H1.22L16.8,28.33l15.59,26.99l15.59,26.99l15.59,26.99l15.59-26.99l15.58-26.98
			l-15.59-27L63.56,1.34z M75.04,79.95L63.56,99.83L52.08,79.95L37.86,55.33l14.21-24.63l11.47-19.88l11.47,19.88l14.21,24.63
			L75.04,79.95z"/>
		<polygon class="st0" points="91.86,1.34 94.63,6.14 117.58,6.14 106.09,26.06 108.84,30.87 125.9,1.34 		"/>
	</g>
</g>
</svg>
